<?xml version="1.0" encoding="UTF-8" standalone="no"?>
<!DOCTYPE svg PUBLIC "-//W3C//DTD SVG 1.1//EN" "http://www.w3.org/Graphics/SVG/1.1/DTD/svg11.dtd">
<!-- Created with Vectornator (http://vectornator.io/) -->
<svg height="100%" stroke-miterlimit="10" style="fill-rule:nonzero;clip-rule:evenodd;stroke-linecap:round;stroke-linejoin:round;" version="1.1" viewBox="0 0 175 161" width="100%" xml:space="preserve" xmlns="http://www.w3.org/2000/svg" xmlns:vectornator="http://vectornator.io" xmlns:xlink="http://www.w3.org/1999/xlink">
<defs/>
<clipPath id="ArtboardFrame">
<rect height="161" width="175" x="0" y="0"/>
</clipPath>
<g clip-path="url(#ArtboardFrame)" id="Untitled" vectornator:layerName="Untitled">
<path d="M0 69L0 3.8075C0 2.19607 1.80819 1.24626 3.13499 2.16075L59.9024 52.6008C60.444 52.974 49.0284 47.4952 49.0284 48.153L51 102.5L0 69Z" fill="#f9bd03" fill-rule="evenodd" opacity="1" stroke="none"/>
<path d="M-0.0778363 158.065L-0.0778363 68.0648L50.9222 102.468L50.9222 158.065C50.9222 159.17 50.0268 160.065 48.9222 160.065L1.92216 160.065C0.817596 160.065-0.0778363 159.17-0.0778363 158.065Z" fill="#0174fb" fill-rule="evenodd" opacity="1" stroke="none"/>
<path d="M116.555 113.309C116.555 104.473 123.719 97.3092 132.555 97.3092C141.392 97.3092 148.555 104.473 148.555 113.309C148.555 122.146 141.392 129.309 132.555 129.309C123.719 129.309 116.555 122.146 116.555 113.309Z" fill="#04c9a6" fill-rule="evenodd" opacity="1" stroke="none"/>
<path d="M169.173 1.14158C171.484-0.561898 174.75 1.08815 174.75 3.95897L174.63 156.981C174.63 157.484 174.683 158.133 174.584 158.679C174.5 159.145 174.289 159.525 174.01 159.798C173.358 160.432 172.198 160.35 171.197 160.35L125.914 160.406C125.232 160.406 124.585 160.136 124.201 159.714C123.771 159.243 123.644 158.614 123.644 158.614C123.644 158.614 123.634 157.771 123.634 157.282L123.598 131.343C127 133.716 129.347 133.958 133.809 133.958C145.407 133.958 154.25 124.598 154.25 113C154.25 101.402 144.848 92 133.25 92C128.788 92 127.035 92.6564 123.633 95.0292L123.651 82.5244C123.651 82.3784 123.688 81.8664 123.577 81.7714L95.7859 59.2546C94.073 57.7909 93.7513 58.1307 95.5648 56.7937L169.173 1.14158Z" fill="#04c9a6" fill-rule="evenodd" opacity="1" stroke="none"/>
<path d="M71.5287 70.7313C69.6483 69.2159 69.3525 66.4631 70.8678 64.5828C72.3832 62.7024 75.136 62.4066 77.0163 63.922L134.164 109.978C136.045 111.493 136.34 114.246 134.825 116.126C133.31 118.007 130.557 118.302 128.677 116.787L71.5287 70.7313Z" fill="#000000" fill-rule="evenodd" opacity="1" stroke="none"/>
<path d="M57.4329 65.7205C57.4329 56.8839 64.5963 49.7205 73.4329 49.7205C82.2694 49.7205 89.4329 56.8839 89.4329 65.7205C89.4329 74.557 82.2694 81.7205 73.4329 81.7205C64.5963 81.7205 57.4329 74.557 57.4329 65.7205Z" fill="#0174fb" fill-rule="evenodd" opacity="1" stroke="none"/>
<path d="M68.25 66C68.25 63.2386 70.4886 61 73.25 61C76.0114 61 78.25 63.2386 78.25 66C78.25 68.7614 76.0114 71 73.25 71C70.4886 71 68.25 68.7614 68.25 66Z" fill="#000000" fill-rule="evenodd" opacity="1" stroke="none"/>
<path d="M23.2043 221.072L36.4151 221.072C70.1009 221.072 97.4087 248.38 97.4087 282.066L97.4087 282.066C97.4087 315.752 70.1009 343.06 36.4151 343.06L23.2043 343.06C-10.4815 343.06-37.7893 315.752-37.7893 282.066L-37.7893 282.066C-37.7893 248.38-10.4815 221.072 23.2043 221.072Z" fill="#04c9a6" fill-rule="evenodd" opacity="1" stroke="none"/>
<path d="M30.5113 291.167L132.921 291.167C132.932 291.167 132.941 291.176 132.941 291.188L132.941 291.188C132.941 291.199 132.932 291.208 132.921 291.208L30.5113 291.208C30.5001 291.208 30.491 291.199 30.491 291.188L30.491 291.188C30.491 291.176 30.5001 291.167 30.5113 291.167Z" fill="#04c9a6" fill-rule="evenodd" opacity="1" stroke="none"/>
</g>
</svg>
