<?xml version="1.0" encoding="UTF-8" standalone="no"?>
<!DOCTYPE svg PUBLIC "-//W3C//DTD SVG 1.1//EN" "http://www.w3.org/Graphics/SVG/1.1/DTD/svg11.dtd">
<!-- Created with Vectornator (http://vectornator.io/) -->
<svg height="100%" stroke-miterlimit="10" style="fill-rule:nonzero;clip-rule:evenodd;stroke-linecap:round;stroke-linejoin:round;" version="1.1" viewBox="0 0 616 180" width="100%" xml:space="preserve" xmlns="http://www.w3.org/2000/svg" xmlns:vectornator="http://vectornator.io" xmlns:xlink="http://www.w3.org/1999/xlink">
<defs>
<clipPath id="TextBounds">
<rect height="1" width="230.17" x="537.578" y="98.0559"/>
</clipPath>
<clipPath id="TextBounds_2">
<rect height="145" width="230.17" x="679.339" y="116.018"/>
</clipPath>
<linearGradient gradientTransform="matrix(1 0 0 1 -1.4759 -1.59573)" gradientUnits="userSpaceOnUse" id="LinearGradient" x1="198.26" x2="322.305" y1="132.785" y2="132.785">
<stop offset="0" stop-color="#0018d8"/>
<stop offset="1" stop-color="#577aff"/>
</linearGradient>
<linearGradient gradientTransform="matrix(1 0 0 1 -1.4759 -1.59573)" gradientUnits="userSpaceOnUse" id="LinearGradient_2" x1="332.71" x2="481.193" y1="128.305" y2="128.305">
<stop offset="0" stop-color="#1fefc5"/>
<stop offset="1" stop-color="#09df9b"/>
</linearGradient>
</defs>
<clipPath id="ArtboardFrame">
<rect height="180" width="616" x="0" y="0"/>
</clipPath>
<g clip-path="url(#ArtboardFrame)" id="Untitled" vectornator:layerName="Untitled">
<path d="M247.19 37.8C250.223 37.8 252.93 38.43 255.31 39.69C257.737 40.95 259.627 42.8167 260.98 45.29C262.38 47.7633 263.08 50.75 263.08 54.25L263.08 77L255.17 77L255.17 55.44C255.17 51.9867 254.307 49.35 252.58 47.53C250.853 45.6633 248.497 44.73 245.51 44.73C242.523 44.73 240.143 45.6633 238.37 47.53C236.643 49.35 235.78 51.9867 235.78 55.44L235.78 77L227.87 77L227.87 55.44C227.87 51.9867 227.007 49.35 225.28 47.53C223.553 45.6633 221.197 44.73 218.21 44.73C215.223 44.73 212.843 45.6633 211.07 47.53C209.343 49.35 208.48 51.9867 208.48 55.44L208.48 77L200.5 77L200.5 38.43L208.48 38.43L208.48 42.84C209.787 41.2533 211.443 40.0167 213.45 39.13C215.457 38.2433 217.603 37.8 219.89 37.8C222.97 37.8 225.723 38.4533 228.15 39.76C230.577 41.0667 232.443 42.9567 233.75 45.43C234.917 43.0967 236.737 41.2533 239.21 39.9C241.683 38.5 244.343 37.8 247.19 37.8ZM270.574 57.54C270.574 53.6667 271.368 50.2367 272.954 47.25C274.588 44.2633 276.781 41.9533 279.534 40.32C282.334 38.64 285.414 37.8 288.774 37.8C291.808 37.8 294.444 38.4067 296.684 39.62C298.971 40.7867 300.791 42.2567 302.144 44.03L302.144 38.43L310.194 38.43L310.194 77L302.144 77L302.144 71.26C300.791 73.08 298.948 74.5967 296.614 75.81C294.281 77.0233 291.621 77.63 288.634 77.63C285.321 77.63 282.288 76.79 279.534 75.11C276.781 73.3833 274.588 71.0033 272.954 67.97C271.368 64.89 270.574 61.4133 270.574 57.54ZM302.144 57.68C302.144 55.02 301.584 52.71 300.464 50.75C299.391 48.79 297.968 47.2967 296.194 46.27C294.421 45.2433 292.508 44.73 290.454 44.73C288.401 44.73 286.488 45.2433 284.714 46.27C282.941 47.25 281.494 48.72 280.374 50.68C279.301 52.5933 278.764 54.88 278.764 57.54C278.764 60.2 279.301 62.5333 280.374 64.54C281.494 66.5467 282.941 68.0867 284.714 69.16C286.534 70.1867 288.448 70.7 290.454 70.7C292.508 70.7 294.421 70.1867 296.194 69.16C297.968 68.1333 299.391 66.64 300.464 64.68C301.584 62.6733 302.144 60.34 302.144 57.68ZM318.016 57.68C318.016 53.7133 318.809 50.2367 320.396 47.25C322.029 44.2167 324.269 41.8833 327.116 40.25C329.962 38.6167 333.229 37.8 336.916 37.8C341.582 37.8 345.432 38.92 348.466 41.16C351.546 43.3533 353.622 46.5033 354.696 50.61L346.086 50.61C345.386 48.6967 344.266 47.2033 342.726 46.13C341.186 45.0567 339.249 44.52 336.916 44.52C333.649 44.52 331.036 45.6867 329.076 48.02C327.162 50.3067 326.206 53.5267 326.206 57.68C326.206 61.8333 327.162 65.0767 329.076 67.41C331.036 69.7433 333.649 70.91 336.916 70.91C341.536 70.91 344.592 68.88 346.086 64.82L354.696 64.82C353.576 68.74 351.476 71.8667 348.396 74.2C345.316 76.4867 341.489 77.63 336.916 77.63C333.229 77.63 329.962 76.8133 327.116 75.18C324.269 73.5 322.029 71.1667 320.396 68.18C318.809 65.1467 318.016 61.6467 318.016 57.68ZM370.628 44.03C371.795 42.07 373.335 40.5533 375.248 39.48C377.208 38.36 379.518 37.8 382.178 37.8L382.178 46.06L380.148 46.06C377.022 46.06 374.642 46.8533 373.008 48.44C371.422 50.0267 370.628 52.78 370.628 56.7L370.628 77L362.648 77L362.648 38.43L370.628 38.43L370.628 44.03ZM406.244 77.63C402.604 77.63 399.314 76.8133 396.374 75.18C393.434 73.5 391.124 71.1667 389.444 68.18C387.764 65.1467 386.924 61.6467 386.924 57.68C386.924 53.76 387.787 50.2833 389.514 47.25C391.24 44.2167 393.597 41.8833 396.584 40.25C399.57 38.6167 402.907 37.8 406.594 37.8C410.28 37.8 413.617 38.6167 416.604 40.25C419.59 41.8833 421.947 44.2167 423.674 47.25C425.4 50.2833 426.264 53.76 426.264 57.68C426.264 61.6 425.377 65.0767 423.604 68.11C421.83 71.1433 419.404 73.5 416.324 75.18C413.29 76.8133 409.93 77.63 406.244 77.63ZM406.244 70.7C408.297 70.7 410.21 70.21 411.984 69.23C413.804 68.25 415.274 66.78 416.394 64.82C417.514 62.86 418.074 60.48 418.074 57.68C418.074 54.88 417.537 52.5233 416.464 50.61C415.39 48.65 413.967 47.18 412.194 46.2C410.42 45.22 408.507 44.73 406.454 44.73C404.4 44.73 402.487 45.22 400.714 46.2C398.987 47.18 397.61 48.65 396.584 50.61C395.557 52.5233 395.044 54.88 395.044 57.68C395.044 61.8333 396.094 65.0533 398.194 67.34C400.34 69.58 403.024 70.7 406.244 70.7ZM442.132 44.1C443.486 42.3267 445.329 40.8333 447.662 39.62C449.996 38.4067 452.632 37.8 455.572 37.8C458.932 37.8 461.989 38.64 464.742 40.32C467.542 41.9533 469.736 44.2633 471.322 47.25C472.909 50.2367 473.702 53.6667 473.702 57.54C473.702 61.4133 472.909 64.89 471.322 67.97C469.736 71.0033 467.542 73.3833 464.742 75.11C461.989 76.79 458.932 77.63 455.572 77.63C452.632 77.63 450.019 77.0467 447.732 75.88C445.446 74.6667 443.579 73.1733 442.132 71.4L442.132 95.34L434.152 95.34L434.152 38.43L442.132 38.43L442.132 44.1ZM465.582 57.54C465.582 54.88 465.022 52.5933 463.902 50.68C462.829 48.72 461.382 47.25 459.562 46.27C457.789 45.2433 455.876 44.73 453.822 44.73C451.816 44.73 449.902 45.2433 448.082 46.27C446.309 47.2967 444.862 48.79 443.742 50.75C442.669 52.71 442.132 55.02 442.132 57.68C442.132 60.34 442.669 62.6733 443.742 64.68C444.862 66.64 446.309 68.1333 448.082 69.16C449.902 70.1867 451.816 70.7 453.822 70.7C455.876 70.7 457.789 70.1867 459.562 69.16C461.382 68.0867 462.829 66.5467 463.902 64.54C465.022 62.5333 465.582 60.2 465.582 57.54ZM478.934 57.54C478.934 53.6667 479.727 50.2367 481.314 47.25C482.947 44.2633 485.14 41.9533 487.894 40.32C490.694 38.64 493.774 37.8 497.134 37.8C500.167 37.8 502.804 38.4067 505.044 39.62C507.33 40.7867 509.15 42.2567 510.504 44.03L510.504 38.43L518.554 38.43L518.554 77L510.504 77L510.504 71.26C509.15 73.08 507.307 74.5967 504.974 75.81C502.64 77.0233 499.98 77.63 496.994 77.63C493.68 77.63 490.647 76.79 487.894 75.11C485.14 73.3833 482.947 71.0033 481.314 67.97C479.727 64.89 478.934 61.4133 478.934 57.54ZM510.504 57.68C510.504 55.02 509.944 52.71 508.824 50.75C507.75 48.79 506.327 47.2967 504.554 46.27C502.78 45.2433 500.867 44.73 498.814 44.73C496.76 44.73 494.847 45.2433 493.074 46.27C491.3 47.25 489.854 48.72 488.734 50.68C487.66 52.5933 487.124 54.88 487.124 57.54C487.124 60.2 487.66 62.5333 488.734 64.54C489.854 66.5467 491.3 68.0867 493.074 69.16C494.894 70.1867 496.807 70.7 498.814 70.7C500.867 70.7 502.78 70.1867 504.554 69.16C506.327 68.1333 507.75 66.64 508.824 64.68C509.944 62.6733 510.504 60.34 510.504 57.68ZM544.575 37.8C547.562 37.8 550.198 38.4067 552.485 39.62C554.818 40.7867 556.638 42.2567 557.945 44.03L557.945 38.43L565.995 38.43L565.995 77.63C565.995 81.1767 565.248 84.3267 563.755 87.08C562.262 89.88 560.092 92.0733 557.245 93.66C554.445 95.2467 551.085 96.04 547.165 96.04C541.938 96.04 537.598 94.8033 534.145 92.33C530.692 89.9033 528.732 86.59 528.265 82.39L536.175 82.39C536.782 84.3967 538.065 86.0067 540.025 87.22C542.032 88.48 544.412 89.11 547.165 89.11C550.385 89.11 552.975 88.13 554.935 86.17C556.942 84.21 557.945 81.3633 557.945 77.63L557.945 71.19C556.592 73.01 554.748 74.55 552.415 75.81C550.128 77.0233 547.515 77.63 544.575 77.63C541.215 77.63 538.135 76.79 535.335 75.11C532.582 73.3833 530.388 71.0033 528.755 67.97C527.168 64.89 526.375 61.4133 526.375 57.54C526.375 53.6667 527.168 50.2367 528.755 47.25C530.388 44.2633 532.582 41.9533 535.335 40.32C538.135 38.64 541.215 37.8 544.575 37.8ZM557.945 57.68C557.945 55.02 557.385 52.71 556.265 50.75C555.192 48.79 553.768 47.2967 551.995 46.27C550.222 45.2433 548.308 44.73 546.255 44.73C544.202 44.73 542.288 45.2433 540.515 46.27C538.742 47.25 537.295 48.72 536.175 50.68C535.102 52.5933 534.565 54.88 534.565 57.54C534.565 60.2 535.102 62.5333 536.175 64.54C537.295 66.5467 538.742 68.0867 540.515 69.16C542.335 70.1867 544.248 70.7 546.255 70.7C548.308 70.7 550.222 70.1867 551.995 69.16C553.768 68.1333 555.192 66.64 556.265 64.68C557.385 62.6733 557.945 60.34 557.945 57.68ZM611.827 56.77C611.827 58.2167 611.733 59.5233 611.547 60.69L582.077 60.69C582.31 63.77 583.453 66.2433 585.507 68.11C587.56 69.9767 590.08 70.91 593.067 70.91C597.36 70.91 600.393 69.1133 602.167 65.52L610.777 65.52C609.61 69.0667 607.487 71.9833 604.407 74.27C601.373 76.51 597.593 77.63 593.067 77.63C589.38 77.63 586.067 76.8133 583.127 75.18C580.233 73.5 577.947 71.1667 576.267 68.18C574.633 65.1467 573.817 61.6467 573.817 57.68C573.817 53.7133 574.61 50.2367 576.197 47.25C577.83 44.2167 580.093 41.8833 582.987 40.25C585.927 38.6167 589.287 37.8 593.067 37.8C596.707 37.8 599.95 38.5933 602.797 40.18C605.643 41.7667 607.86 44.0067 609.447 46.9C611.033 49.7467 611.827 53.0367 611.827 56.77ZM603.497 54.25C603.45 51.31 602.4 48.9533 600.347 47.18C598.293 45.4067 595.75 44.52 592.717 44.52C589.963 44.52 587.607 45.4067 585.647 47.18C583.687 48.9067 582.52 51.2633 582.147 54.25L603.497 54.25Z" fill="#000000" fill-rule="evenodd" opacity="1" stroke="none"/>
<path d="M1.95029 79.3944L1.95029 14.2019C1.95029 12.5905 3.75848 11.6407 5.08528 12.5552L61.8527 62.9952C62.3943 63.3684 50.9787 57.8896 50.9787 58.5474L52.9503 112.894L1.95029 79.3944Z" fill="#f9bd03" fill-rule="evenodd" opacity="1" stroke="none"/>
<path d="M1.87245 168.459L1.87245 78.4593L52.8724 112.862L52.8724 168.459C52.8724 169.564 51.977 170.459 50.8724 170.459L3.87245 170.459C2.76788 170.459 1.87245 169.564 1.87245 168.459Z" fill="#0174fb" fill-rule="evenodd" opacity="1" stroke="none"/>
<path d="M118.505 123.704C118.505 114.867 125.669 107.704 134.505 107.704C143.342 107.704 150.505 114.867 150.505 123.704C150.505 132.54 143.342 139.704 134.505 139.704C125.669 139.704 118.505 132.54 118.505 123.704Z" fill="#04c9a6" fill-rule="evenodd" opacity="1" stroke="none"/>
<path d="M171.123 11.536C173.434 9.83252 176.7 11.4826 176.7 14.3534L176.58 167.376C176.58 167.879 176.633 168.527 176.534 169.073C176.45 169.539 176.239 169.92 175.96 170.192C175.308 170.827 174.148 170.744 173.148 170.744L127.864 170.8C127.182 170.8 126.535 170.53 126.151 170.109C125.721 169.638 125.594 169.009 125.594 169.009C125.594 169.009 125.584 168.165 125.584 167.677L125.549 141.738C128.951 144.111 131.297 144.352 135.759 144.352C147.357 144.352 156.2 134.992 156.2 123.394C156.2 111.796 146.798 102.394 135.2 102.394C130.738 102.394 128.986 103.051 125.584 105.424L125.601 92.9188C125.601 92.7728 125.638 92.2608 125.527 92.1658L97.7362 69.649C96.0233 68.1853 95.7016 68.5251 97.5151 67.1881L171.123 11.536Z" fill="#04c9a6" fill-rule="evenodd" opacity="1" stroke="none"/>
<path d="M73.479 81.1257C71.5986 79.6103 71.3028 76.8575 72.8181 74.9772C74.3335 73.0968 77.0863 72.801 78.9666 74.3164L136.114 120.372C137.995 121.887 138.29 124.64 136.775 126.52C135.26 128.401 132.507 128.696 130.627 127.181L73.479 81.1257Z" fill="#000000" fill-rule="evenodd" opacity="1" stroke="#000000" stroke-linecap="round" stroke-linejoin="round" stroke-width="1"/>
<path d="M59.3832 76.1149C59.3832 67.2783 66.5466 60.1149 75.3832 60.1149C84.2197 60.1149 91.3832 67.2783 91.3832 76.1149C91.3832 84.9515 84.2197 92.1149 75.3832 92.1149C66.5466 92.1149 59.3832 84.9515 59.3832 76.1149Z" fill="#0174fb" fill-rule="evenodd" opacity="1" stroke="none"/>
<path d="M70.2003 76.3944C70.2003 73.633 72.4389 71.3944 75.2003 71.3944C77.9617 71.3944 80.2003 73.633 80.2003 76.3944C80.2003 79.1558 77.9617 81.3944 75.2003 81.3944C72.4389 81.3944 70.2003 79.1558 70.2003 76.3944Z" fill="#000000" fill-rule="evenodd" opacity="1" stroke="none"/>
<g fill="#04c9a6" opacity="1" stroke="none"/>
<g fill="#04c9a6" opacity="1" stroke="none">
<path clip-path="url(#TextBounds_2)" d="M760.6 118.371L762.431 140.349L760.541 140.349C759.359 136.292 757.754 132.787 755.725 129.833C753.697 126.878 751.334 124.604 748.636 123.009C745.938 121.413 743.111 120.616 740.157 120.616C737.833 120.616 735.815 121.098 734.101 122.063C732.388 123.028 731.118 124.358 730.291 126.051C729.503 127.666 729.109 130.266 729.109 133.85L729.109 180.998C729.109 184.503 729.345 187.073 729.818 188.708C730.291 190.342 731.197 191.77 732.536 192.991C734.938 195.158 738.444 196.556 743.052 197.186L743.052 199.018L701.4 199.018L701.4 197.186C706.52 196.477 710.262 194.862 712.625 192.341C713.689 191.199 714.417 189.801 714.811 188.147C715.205 186.492 715.402 184.109 715.402 180.998L715.402 133.85C715.402 129.951 714.87 127.115 713.807 125.342C712.98 123.885 711.739 122.733 710.085 121.886C708.43 121.039 706.52 120.616 704.354 120.616C699.903 120.616 695.836 122.378 692.153 125.904C688.47 129.429 685.723 134.244 683.911 140.349L682.08 140.349L683.911 118.371L760.6 118.371ZM756.109 120.557L747.543 120.557C749.63 121.423 751.383 122.418 752.801 123.54C754.219 124.663 755.696 126.288 757.232 128.415L756.109 120.557ZM712.093 196.004L729.404 196.004L727.1 194.291C725.682 193.228 724.796 192.42 724.442 191.869C724.087 191.317 723.91 190.451 723.91 189.269L723.91 187.319C723.91 187.004 723.9 186.788 723.88 186.669C723.861 186.551 723.851 186.433 723.851 186.315L723.851 131.073C723.851 130.955 723.861 130.837 723.88 130.719C723.9 130.601 723.91 130.384 723.91 130.069L723.91 128.119C723.91 126.938 724.126 126.022 724.56 125.372C724.993 124.722 725.84 123.964 727.1 123.097L730.468 120.616L712.271 120.616L715.047 123.097C716.032 123.964 716.702 124.761 717.056 125.49C717.411 126.219 717.588 127.095 717.588 128.119L717.588 130.069C717.627 130.423 717.647 130.758 717.647 131.073L717.647 186.315C717.647 186.63 717.627 186.965 717.588 187.319L717.588 189.269C717.588 190.451 717.401 191.337 717.027 191.928C716.653 192.519 715.796 193.306 714.457 194.291L712.093 196.004ZM685.861 120.557L685.034 129.242C686.727 126.76 688.165 124.948 689.347 123.806C690.528 122.664 692.065 121.581 693.955 120.557L685.861 120.557Z" fill-rule="evenodd"/>
<path clip-path="url(#TextBounds_2)" d="M779.801 171.485L779.801 172.785C779.801 177.472 780.491 181.579 781.869 185.104C783.248 188.629 785.207 191.357 787.748 193.287C790.288 195.217 793.272 196.182 796.699 196.182C798.511 196.182 800.332 195.876 802.164 195.266C803.995 194.655 805.807 193.779 807.599 192.637C809.392 191.494 811.41 189.88 813.655 187.792L814.837 189.387C810.78 193.326 806.93 196.142 803.286 197.836C799.643 199.53 795.576 200.376 791.086 200.376C786.399 200.376 782.194 199.352 778.472 197.304C774.75 195.256 771.865 192.361 769.817 188.619C767.768 184.877 766.744 180.663 766.744 175.976C766.744 171.052 767.877 166.542 770.141 162.446C772.406 158.349 775.498 155.139 779.417 152.815C783.336 150.492 787.718 149.33 792.563 149.33C796.699 149.33 800.49 150.176 803.936 151.87C807.383 153.564 810.071 155.947 812.001 159.019C814.049 162.17 815.192 166.326 815.428 171.485L779.801 171.485ZM779.801 169.418L803.375 169.418C803.336 164.1 802.804 160.279 801.78 157.956C800.874 155.829 799.574 154.184 797.88 153.022C796.187 151.86 794.296 151.279 792.209 151.279C784.646 151.279 780.51 157.325 779.801 169.418ZM793.627 198.604C790.83 198.25 788.585 197.718 786.891 197.009C785.198 196.3 783.543 195.197 781.928 193.7C779.526 191.494 777.655 188.59 776.316 184.986C774.976 181.382 774.307 177.453 774.307 173.199C774.307 170.245 774.592 167.527 775.163 165.045C775.735 162.564 776.621 160.339 777.822 158.369C779.023 156.4 780.648 154.529 782.696 152.756C778.206 155.198 774.76 158.428 772.357 162.446C769.954 166.463 768.753 170.954 768.753 175.917C768.753 180.17 769.718 184.04 771.648 187.526C773.578 191.012 776.266 193.74 779.713 195.709C783.159 197.678 786.97 198.663 791.145 198.663C792.09 198.663 792.918 198.643 793.627 198.604ZM810.524 169.418C810.406 166.503 809.874 163.864 808.929 161.501C807.984 159.137 806.674 157.138 805 155.504C803.326 153.869 801.347 152.697 799.062 151.988C801.347 153.8 802.991 155.947 803.995 158.428C805 160.91 805.502 164.021 805.502 167.763C805.502 168.393 805.482 168.945 805.443 169.418L810.524 169.418Z" fill-rule="evenodd"/>
<path clip-path="url(#TextBounds_2)" d="M841.897 177.925L832.325 190.628C831.144 192.164 830.553 193.444 830.553 194.468C830.553 196.359 832.01 197.324 834.925 197.363L835.929 197.422L835.929 199.018L819.564 199.018L819.564 197.422C821.218 197.186 822.685 196.704 823.965 195.975C825.245 195.246 826.594 194.094 828.012 192.519L830.198 190.096C830.671 189.505 831.026 189.092 831.262 188.855L840.774 176.271L831.794 163.096L831.026 161.973C828.623 158.428 826.713 155.986 825.295 154.647C823.877 153.308 822.34 152.5 820.686 152.225L820.686 150.629L846.859 150.629L846.859 152.225C844.929 152.264 843.61 152.481 842.901 152.875C842.192 153.268 841.838 153.958 841.838 154.942C841.838 155.77 842.094 156.597 842.606 157.424L843.315 158.605L843.61 159.196L849.223 167.645L856.844 157.897C857.908 156.518 858.44 155.415 858.44 154.588C858.44 153.721 858.085 153.111 857.376 152.756C856.667 152.402 855.466 152.225 853.772 152.225L853.772 150.629L868.602 150.629L868.602 152.225C866.357 152.54 864.555 153.16 863.196 154.086C861.837 155.011 860.015 156.912 857.731 159.787L850.286 169.24L863.462 188.442C865.628 191.554 867.351 193.671 868.631 194.793C869.911 195.916 871.556 196.792 873.565 197.422L873.565 199.018L846.505 199.018L846.505 197.422C848.593 197.383 850.089 197.157 850.995 196.743C851.901 196.329 852.354 195.63 852.354 194.646C852.354 193.818 851.842 192.637 850.818 191.101L841.897 177.925ZM864.939 196.477C863.678 195.492 862.556 194.429 861.571 193.287C860.586 192.144 859.306 190.431 857.731 188.147L839.711 161.796L839.12 160.969C837.544 158.605 836.756 156.754 836.756 155.415C836.756 154.115 837.485 153.111 838.942 152.402L825.531 152.402C826.988 153.426 828.209 154.608 829.194 155.947C830.927 158.231 832.384 160.299 833.566 162.15L834.393 163.391L852.65 190.451C853.792 192.263 854.363 193.602 854.363 194.468C854.363 195.098 854.146 195.768 853.713 196.477L864.939 196.477Z" fill-rule="evenodd"/>
<path clip-path="url(#TextBounds_2)" d="M893.534 152.402L893.534 183.715C893.534 186.788 893.721 189.259 894.096 191.13C894.47 193.001 895.061 194.37 895.868 195.236C896.675 196.103 897.749 196.536 899.088 196.536C901.491 196.536 904.445 195.118 907.95 192.282L908.837 193.7C906.198 195.985 903.795 197.639 901.629 198.663C899.462 199.687 897.237 200.199 894.952 200.199C890.541 200.199 887.183 198.732 884.879 195.798C882.575 192.863 881.422 188.599 881.422 183.006L881.422 152.225L875.987 152.225L875.987 150.807C878.941 150.413 881.521 149.349 883.727 147.616C885.932 145.883 887.715 143.49 889.074 140.438C890.432 137.385 891.407 133.633 891.998 129.183L893.475 129.183L893.475 150.629L906.414 150.629L906.414 152.402L893.534 152.402ZM888.867 144.78C887.488 147.065 885.676 148.857 883.431 150.157L883.431 180.289L883.431 181.647C883.431 183.893 883.53 185.872 883.727 187.585C883.924 189.299 884.229 190.667 884.642 191.691C885.056 192.716 885.676 193.72 886.504 194.705C888.709 197.265 891.565 198.545 895.07 198.545C895.701 198.545 896.252 198.525 896.725 198.486C894.992 198.092 893.643 197.58 892.678 196.95C891.713 196.32 890.954 195.404 890.403 194.202C889.852 193.001 889.458 191.357 889.221 189.269C888.985 187.182 888.867 184.602 888.867 181.529L888.867 179.875L888.867 144.78Z" fill-rule="evenodd"/>
</g>
<path d="M196.784 131.154C196.784 127.187 197.577 123.734 199.164 120.794C200.751 117.807 202.944 115.497 205.744 113.864C208.591 112.231 211.834 111.414 215.474 111.414C220.187 111.414 224.061 112.557 227.094 114.844C230.174 117.131 232.204 120.304 233.184 124.364L226.324 124.364C225.671 122.031 224.387 120.187 222.474 118.834C220.607 117.481 218.274 116.804 215.474 116.804C211.834 116.804 208.894 118.064 206.654 120.584C204.414 123.057 203.294 126.581 203.294 131.154C203.294 135.774 204.414 139.344 206.654 141.864C208.894 144.384 211.834 145.644 215.474 145.644C218.274 145.644 220.607 144.991 222.474 143.684C224.341 142.377 225.624 140.511 226.324 138.084L233.184 138.084C232.157 142.004 230.104 145.154 227.024 147.534C223.944 149.867 220.094 151.034 215.474 151.034C211.834 151.034 208.591 150.217 205.744 148.584C202.944 146.951 200.751 144.641 199.164 141.654C197.577 138.667 196.784 135.167 196.784 131.154ZM258.414 151.034C254.82 151.034 251.554 150.217 248.614 148.584C245.72 146.951 243.434 144.641 241.754 141.654C240.12 138.621 239.304 135.121 239.304 131.154C239.304 127.234 240.144 123.781 241.824 120.794C243.55 117.761 245.884 115.451 248.824 113.864C251.764 112.231 255.054 111.414 258.694 111.414C262.334 111.414 265.624 112.231 268.564 113.864C271.504 115.451 273.814 117.737 275.494 120.724C277.22 123.711 278.084 127.187 278.084 131.154C278.084 135.121 277.197 138.621 275.424 141.654C273.697 144.641 271.34 146.951 268.354 148.584C265.367 150.217 262.054 151.034 258.414 151.034ZM258.414 145.434C260.7 145.434 262.847 144.897 264.854 143.824C266.86 142.751 268.47 141.141 269.684 138.994C270.944 136.847 271.574 134.234 271.574 131.154C271.574 128.074 270.967 125.461 269.754 123.314C268.54 121.167 266.954 119.581 264.994 118.554C263.034 117.481 260.91 116.944 258.624 116.944C256.29 116.944 254.144 117.481 252.184 118.554C250.27 119.581 248.73 121.167 247.564 123.314C246.397 125.461 245.814 128.074 245.814 131.154C245.814 134.281 246.374 136.917 247.494 139.064C248.66 141.211 250.2 142.821 252.114 143.894C254.027 144.921 256.127 145.434 258.414 145.434ZM305.149 111.344C309.816 111.344 313.596 112.767 316.489 115.614C319.382 118.414 320.829 122.474 320.829 127.794L320.829 150.404L314.529 150.404L314.529 128.704C314.529 124.877 313.572 121.961 311.659 119.954C309.746 117.901 307.132 116.874 303.819 116.874C300.459 116.874 297.776 117.924 295.769 120.024C293.809 122.124 292.829 125.181 292.829 129.194L292.829 150.404L286.459 150.404L286.459 112.044L292.829 112.044L292.829 117.504C294.089 115.544 295.792 114.027 297.939 112.954C300.132 111.881 302.536 111.344 305.149 111.344Z" fill="url(#LinearGradient)" fill-rule="evenodd" opacity="1" stroke="none"/>
<path d="M349.924 111.344C354.591 111.344 358.371 112.767 361.264 115.614C364.158 118.414 365.604 122.474 365.604 127.794L365.604 150.404L359.304 150.404L359.304 128.704C359.304 124.877 358.348 121.961 356.434 119.954C354.521 117.901 351.908 116.874 348.594 116.874C345.234 116.874 342.551 117.924 340.544 120.024C338.584 122.124 337.604 125.181 337.604 129.194L337.604 150.404L331.234 150.404L331.234 112.044L337.604 112.044L337.604 117.504C338.864 115.544 340.568 114.027 342.714 112.954C344.908 111.881 347.311 111.344 349.924 111.344ZM411.01 129.754C411.01 130.967 410.94 132.251 410.8 133.604L380.14 133.604C380.373 137.384 381.656 140.347 383.99 142.494C386.37 144.594 389.24 145.644 392.6 145.644C395.353 145.644 397.64 145.014 399.46 143.754C401.326 142.447 402.633 140.721 403.38 138.574L410.24 138.574C409.213 142.261 407.16 145.271 404.08 147.604C401 149.891 397.173 151.034 392.6 151.034C388.96 151.034 385.693 150.217 382.8 148.584C379.953 146.951 377.713 144.641 376.08 141.654C374.446 138.621 373.63 135.121 373.63 131.154C373.63 127.187 374.423 123.711 376.01 120.724C377.596 117.737 379.813 115.451 382.66 113.864C385.553 112.231 388.866 111.414 392.6 111.414C396.24 111.414 399.46 112.207 402.26 113.794C405.06 115.381 407.206 117.574 408.7 120.374C410.24 123.127 411.01 126.254 411.01 129.754ZM404.43 128.424C404.43 125.997 403.893 123.921 402.82 122.194C401.746 120.421 400.276 119.091 398.41 118.204C396.59 117.271 394.56 116.804 392.32 116.804C389.1 116.804 386.346 117.831 384.06 119.884C381.82 121.937 380.536 124.784 380.21 128.424L404.43 128.424ZM417.038 131.154C417.038 127.187 417.831 123.734 419.418 120.794C421.005 117.807 423.198 115.497 425.998 113.864C428.845 112.231 432.088 111.414 435.728 111.414C440.441 111.414 444.315 112.557 447.348 114.844C450.428 117.131 452.458 120.304 453.438 124.364L446.578 124.364C445.925 122.031 444.641 120.187 442.728 118.834C440.861 117.481 438.528 116.804 435.728 116.804C432.088 116.804 429.148 118.064 426.908 120.584C424.668 123.057 423.548 126.581 423.548 131.154C423.548 135.774 424.668 139.344 426.908 141.864C429.148 144.384 432.088 145.644 435.728 145.644C438.528 145.644 440.861 144.991 442.728 143.684C444.595 142.377 445.878 140.511 446.578 138.084L453.438 138.084C452.411 142.004 450.358 145.154 447.278 147.534C444.198 149.867 440.348 151.034 435.728 151.034C432.088 151.034 428.845 150.217 425.998 148.584C423.198 146.951 421.005 144.641 419.418 141.654C417.831 138.667 417.038 135.167 417.038 131.154ZM469.707 117.294L469.707 139.904C469.707 141.771 470.104 143.101 470.897 143.894C471.691 144.641 473.067 145.014 475.027 145.014L479.717 145.014L479.717 150.404L473.977 150.404C470.431 150.404 467.771 149.587 465.997 147.954C464.224 146.321 463.337 143.637 463.337 139.904L463.337 117.294L458.367 117.294L458.367 112.044L463.337 112.044L463.337 102.384L469.707 102.384L469.707 112.044L479.717 112.044L479.717 117.294L469.707 117.294Z" fill="url(#LinearGradient_2)" fill-rule="evenodd" opacity="1" stroke="none"/>
</g>
</svg>
