<?xml version="1.0" encoding="UTF-8" standalone="no"?>
<!DOCTYPE svg PUBLIC "-//W3C//DTD SVG 1.1//EN" "http://www.w3.org/Graphics/SVG/1.1/DTD/svg11.dtd">
<!-- Created with Vectornator (http://vectornator.io/) -->
<svg height="100%" stroke-miterlimit="10" style="fill-rule:nonzero;clip-rule:evenodd;stroke-linecap:round;stroke-linejoin:round;" version="1.1" viewBox="0 0 616 180" width="100%" xml:space="preserve" xmlns="http://www.w3.org/2000/svg" xmlns:vectornator="http://vectornator.io" xmlns:xlink="http://www.w3.org/1999/xlink">
<defs>
<linearGradient gradientTransform="matrix(1 0 0 1 0 0)" gradientUnits="userSpaceOnUse" id="LinearGradient" x1="198.26" x2="322.305" y1="132.785" y2="132.785">
<stop offset="0" stop-color="#0018d8"/>
<stop offset="1" stop-color="#577aff"/>
</linearGradient>
<linearGradient gradientTransform="matrix(1 0 0 1 0 0)" gradientUnits="userSpaceOnUse" id="LinearGradient_2" x1="332.71" x2="481.193" y1="128.305" y2="128.305">
<stop offset="0" stop-color="#1fefc5"/>
<stop offset="1" stop-color="#09df9b"/>
</linearGradient>
</defs>
<g id="Untitled" vectornator:layerName="Untitled">
<path d="M247.19 37.8C250.223 37.8 252.93 38.43 255.31 39.69C257.737 40.95 259.627 42.8167 260.98 45.29C262.38 47.7633 263.08 50.75 263.08 54.25L263.08 77L255.17 77L255.17 55.44C255.17 51.9867 254.307 49.35 252.58 47.53C250.853 45.6633 248.497 44.73 245.51 44.73C242.523 44.73 240.143 45.6633 238.37 47.53C236.643 49.35 235.78 51.9867 235.78 55.44L235.78 77L227.87 77L227.87 55.44C227.87 51.9867 227.007 49.35 225.28 47.53C223.553 45.6633 221.197 44.73 218.21 44.73C215.223 44.73 212.843 45.6633 211.07 47.53C209.343 49.35 208.48 51.9867 208.48 55.44L208.48 77L200.5 77L200.5 38.43L208.48 38.43L208.48 42.84C209.787 41.2533 211.443 40.0167 213.45 39.13C215.457 38.2433 217.603 37.8 219.89 37.8C222.97 37.8 225.723 38.4533 228.15 39.76C230.577 41.0667 232.443 42.9567 233.75 45.43C234.917 43.0967 236.737 41.2533 239.21 39.9C241.683 38.5 244.343 37.8 247.19 37.8ZM270.574 57.54C270.574 53.6667 271.368 50.2367 272.954 47.25C274.588 44.2633 276.781 41.9533 279.534 40.32C282.334 38.64 285.414 37.8 288.774 37.8C291.808 37.8 294.444 38.4067 296.684 39.62C298.971 40.7867 300.791 42.2567 302.144 44.03L302.144 38.43L310.194 38.43L310.194 77L302.144 77L302.144 71.26C300.791 73.08 298.948 74.5967 296.614 75.81C294.281 77.0233 291.621 77.63 288.634 77.63C285.321 77.63 282.288 76.79 279.534 75.11C276.781 73.3833 274.588 71.0033 272.954 67.97C271.368 64.89 270.574 61.4133 270.574 57.54ZM302.144 57.68C302.144 55.02 301.584 52.71 300.464 50.75C299.391 48.79 297.968 47.2967 296.194 46.27C294.421 45.2433 292.508 44.73 290.454 44.73C288.401 44.73 286.488 45.2433 284.714 46.27C282.941 47.25 281.494 48.72 280.374 50.68C279.301 52.5933 278.764 54.88 278.764 57.54C278.764 60.2 279.301 62.5333 280.374 64.54C281.494 66.5467 282.941 68.0867 284.714 69.16C286.534 70.1867 288.448 70.7 290.454 70.7C292.508 70.7 294.421 70.1867 296.194 69.16C297.968 68.1333 299.391 66.64 300.464 64.68C301.584 62.6733 302.144 60.34 302.144 57.68ZM318.016 57.68C318.016 53.7133 318.809 50.2367 320.396 47.25C322.029 44.2167 324.269 41.8833 327.116 40.25C329.962 38.6167 333.229 37.8 336.916 37.8C341.582 37.8 345.432 38.92 348.466 41.16C351.546 43.3533 353.622 46.5033 354.696 50.61L346.086 50.61C345.386 48.6967 344.266 47.2033 342.726 46.13C341.186 45.0567 339.249 44.52 336.916 44.52C333.649 44.52 331.036 45.6867 329.076 48.02C327.162 50.3067 326.206 53.5267 326.206 57.68C326.206 61.8333 327.162 65.0767 329.076 67.41C331.036 69.7433 333.649 70.91 336.916 70.91C341.536 70.91 344.592 68.88 346.086 64.82L354.696 64.82C353.576 68.74 351.476 71.8667 348.396 74.2C345.316 76.4867 341.489 77.63 336.916 77.63C333.229 77.63 329.962 76.8133 327.116 75.18C324.269 73.5 322.029 71.1667 320.396 68.18C318.809 65.1467 318.016 61.6467 318.016 57.68ZM370.628 44.03C371.795 42.07 373.335 40.5533 375.248 39.48C377.208 38.36 379.518 37.8 382.178 37.8L382.178 46.06L380.148 46.06C377.022 46.06 374.642 46.8533 373.008 48.44C371.422 50.0267 370.628 52.78 370.628 56.7L370.628 77L362.648 77L362.648 38.43L370.628 38.43L370.628 44.03ZM406.244 77.63C402.604 77.63 399.314 76.8133 396.374 75.18C393.434 73.5 391.124 71.1667 389.444 68.18C387.764 65.1467 386.924 61.6467 386.924 57.68C386.924 53.76 387.787 50.2833 389.514 47.25C391.24 44.2167 393.597 41.8833 396.584 40.25C399.57 38.6167 402.907 37.8 406.594 37.8C410.28 37.8 413.617 38.6167 416.604 40.25C419.59 41.8833 421.947 44.2167 423.674 47.25C425.4 50.2833 426.264 53.76 426.264 57.68C426.264 61.6 425.377 65.0767 423.604 68.11C421.83 71.1433 419.404 73.5 416.324 75.18C413.29 76.8133 409.93 77.63 406.244 77.63ZM406.244 70.7C408.297 70.7 410.21 70.21 411.984 69.23C413.804 68.25 415.274 66.78 416.394 64.82C417.514 62.86 418.074 60.48 418.074 57.68C418.074 54.88 417.537 52.5233 416.464 50.61C415.39 48.65 413.967 47.18 412.194 46.2C410.42 45.22 408.507 44.73 406.454 44.73C404.4 44.73 402.487 45.22 400.714 46.2C398.987 47.18 397.61 48.65 396.584 50.61C395.557 52.5233 395.044 54.88 395.044 57.68C395.044 61.8333 396.094 65.0533 398.194 67.34C400.34 69.58 403.024 70.7 406.244 70.7ZM442.132 44.1C443.486 42.3267 445.329 40.8333 447.662 39.62C449.996 38.4067 452.632 37.8 455.572 37.8C458.932 37.8 461.989 38.64 464.742 40.32C467.542 41.9533 469.736 44.2633 471.322 47.25C472.909 50.2367 473.702 53.6667 473.702 57.54C473.702 61.4133 472.909 64.89 471.322 67.97C469.736 71.0033 467.542 73.3833 464.742 75.11C461.989 76.79 458.932 77.63 455.572 77.63C452.632 77.63 450.019 77.0467 447.732 75.88C445.446 74.6667 443.579 73.1733 442.132 71.4L442.132 95.34L434.152 95.34L434.152 38.43L442.132 38.43L442.132 44.1ZM465.582 57.54C465.582 54.88 465.022 52.5933 463.902 50.68C462.829 48.72 461.382 47.25 459.562 46.27C457.789 45.2433 455.876 44.73 453.822 44.73C451.816 44.73 449.902 45.2433 448.082 46.27C446.309 47.2967 444.862 48.79 443.742 50.75C442.669 52.71 442.132 55.02 442.132 57.68C442.132 60.34 442.669 62.6733 443.742 64.68C444.862 66.64 446.309 68.1333 448.082 69.16C449.902 70.1867 451.816 70.7 453.822 70.7C455.876 70.7 457.789 70.1867 459.562 69.16C461.382 68.0867 462.829 66.5467 463.902 64.54C465.022 62.5333 465.582 60.2 465.582 57.54ZM478.934 57.54C478.934 53.6667 479.727 50.2367 481.314 47.25C482.947 44.2633 485.14 41.9533 487.894 40.32C490.694 38.64 493.774 37.8 497.134 37.8C500.167 37.8 502.804 38.4067 505.044 39.62C507.33 40.7867 509.15 42.2567 510.504 44.03L510.504 38.43L518.554 38.43L518.554 77L510.504 77L510.504 71.26C509.15 73.08 507.307 74.5967 504.974 75.81C502.64 77.0233 499.98 77.63 496.994 77.63C493.68 77.63 490.647 76.79 487.894 75.11C485.14 73.3833 482.947 71.0033 481.314 67.97C479.727 64.89 478.934 61.4133 478.934 57.54ZM510.504 57.68C510.504 55.02 509.944 52.71 508.824 50.75C507.75 48.79 506.327 47.2967 504.554 46.27C502.78 45.2433 500.867 44.73 498.814 44.73C496.76 44.73 494.847 45.2433 493.074 46.27C491.3 47.25 489.854 48.72 488.734 50.68C487.66 52.5933 487.124 54.88 487.124 57.54C487.124 60.2 487.66 62.5333 488.734 64.54C489.854 66.5467 491.3 68.0867 493.074 69.16C494.894 70.1867 496.807 70.7 498.814 70.7C500.867 70.7 502.78 70.1867 504.554 69.16C506.327 68.1333 507.75 66.64 508.824 64.68C509.944 62.6733 510.504 60.34 510.504 57.68ZM544.575 37.8C547.562 37.8 550.198 38.4067 552.485 39.62C554.818 40.7867 556.638 42.2567 557.945 44.03L557.945 38.43L565.995 38.43L565.995 77.63C565.995 81.1767 565.248 84.3267 563.755 87.08C562.262 89.88 560.092 92.0733 557.245 93.66C554.445 95.2467 551.085 96.04 547.165 96.04C541.938 96.04 537.598 94.8033 534.145 92.33C530.692 89.9033 528.732 86.59 528.265 82.39L536.175 82.39C536.782 84.3967 538.065 86.0067 540.025 87.22C542.032 88.48 544.412 89.11 547.165 89.11C550.385 89.11 552.975 88.13 554.935 86.17C556.942 84.21 557.945 81.3633 557.945 77.63L557.945 71.19C556.592 73.01 554.748 74.55 552.415 75.81C550.128 77.0233 547.515 77.63 544.575 77.63C541.215 77.63 538.135 76.79 535.335 75.11C532.582 73.3833 530.388 71.0033 528.755 67.97C527.168 64.89 526.375 61.4133 526.375 57.54C526.375 53.6667 527.168 50.2367 528.755 47.25C530.388 44.2633 532.582 41.9533 535.335 40.32C538.135 38.64 541.215 37.8 544.575 37.8ZM557.945 57.68C557.945 55.02 557.385 52.71 556.265 50.75C555.192 48.79 553.768 47.2967 551.995 46.27C550.222 45.2433 548.308 44.73 546.255 44.73C544.202 44.73 542.288 45.2433 540.515 46.27C538.742 47.25 537.295 48.72 536.175 50.68C535.102 52.5933 534.565 54.88 534.565 57.54C534.565 60.2 535.102 62.5333 536.175 64.54C537.295 66.5467 538.742 68.0867 540.515 69.16C542.335 70.1867 544.248 70.7 546.255 70.7C548.308 70.7 550.222 70.1867 551.995 69.16C553.768 68.1333 555.192 66.64 556.265 64.68C557.385 62.6733 557.945 60.34 557.945 57.68ZM611.827 56.77C611.827 58.2167 611.733 59.5233 611.547 60.69L582.077 60.69C582.31 63.77 583.453 66.2433 585.507 68.11C587.56 69.9767 590.08 70.91 593.067 70.91C597.36 70.91 600.393 69.1133 602.167 65.52L610.777 65.52C609.61 69.0667 607.487 71.9833 604.407 74.27C601.373 76.51 597.593 77.63 593.067 77.63C589.38 77.63 586.067 76.8133 583.127 75.18C580.233 73.5 577.947 71.1667 576.267 68.18C574.633 65.1467 573.817 61.6467 573.817 57.68C573.817 53.7133 574.61 50.2367 576.197 47.25C577.83 44.2167 580.093 41.8833 582.987 40.25C585.927 38.6167 589.287 37.8 593.067 37.8C596.707 37.8 599.95 38.5933 602.797 40.18C605.643 41.7667 607.86 44.0067 609.447 46.9C611.033 49.7467 611.827 53.0367 611.827 56.77ZM603.497 54.25C603.45 51.31 602.4 48.9533 600.347 47.18C598.293 45.4067 595.75 44.52 592.717 44.52C589.963 44.52 587.607 45.4067 585.647 47.18C583.687 48.9067 582.52 51.2633 582.147 54.25L603.497 54.25Z" fill="#ffffff" fill-rule="evenodd" opacity="1" stroke="none"/>
<path d="M198.26 132.75C198.26 128.783 199.053 125.33 200.64 122.39C202.227 119.403 204.42 117.093 207.22 115.46C210.067 113.827 213.31 113.01 216.95 113.01C221.663 113.01 225.537 114.153 228.57 116.44C231.65 118.727 233.68 121.9 234.66 125.96L227.8 125.96C227.147 123.627 225.863 121.783 223.95 120.43C222.083 119.077 219.75 118.4 216.95 118.4C213.31 118.4 210.37 119.66 208.13 122.18C205.89 124.653 204.77 128.177 204.77 132.75C204.77 137.37 205.89 140.94 208.13 143.46C210.37 145.98 213.31 147.24 216.95 147.24C219.75 147.24 222.083 146.587 223.95 145.28C225.817 143.973 227.1 142.107 227.8 139.68L234.66 139.68C233.633 143.6 231.58 146.75 228.5 149.13C225.42 151.463 221.57 152.63 216.95 152.63C213.31 152.63 210.067 151.813 207.22 150.18C204.42 148.547 202.227 146.237 200.64 143.25C199.053 140.263 198.26 136.763 198.26 132.75ZM259.89 152.63C256.296 152.63 253.03 151.813 250.09 150.18C247.196 148.547 244.91 146.237 243.23 143.25C241.596 140.217 240.78 136.717 240.78 132.75C240.78 128.83 241.62 125.377 243.3 122.39C245.026 119.357 247.36 117.047 250.3 115.46C253.24 113.827 256.53 113.01 260.17 113.01C263.81 113.01 267.1 113.827 270.04 115.46C272.98 117.047 275.29 119.333 276.97 122.32C278.696 125.307 279.56 128.783 279.56 132.75C279.56 136.717 278.673 140.217 276.9 143.25C275.173 146.237 272.816 148.547 269.83 150.18C266.843 151.813 263.53 152.63 259.89 152.63ZM259.89 147.03C262.176 147.03 264.323 146.493 266.33 145.42C268.336 144.347 269.946 142.737 271.16 140.59C272.42 138.443 273.05 135.83 273.05 132.75C273.05 129.67 272.443 127.057 271.23 124.91C270.016 122.763 268.43 121.177 266.47 120.15C264.51 119.077 262.386 118.54 260.1 118.54C257.766 118.54 255.62 119.077 253.66 120.15C251.746 121.177 250.206 122.763 249.04 124.91C247.873 127.057 247.29 129.67 247.29 132.75C247.29 135.877 247.85 138.513 248.97 140.66C250.136 142.807 251.676 144.417 253.59 145.49C255.503 146.517 257.603 147.03 259.89 147.03ZM306.625 112.94C311.292 112.94 315.072 114.363 317.965 117.21C320.858 120.01 322.305 124.07 322.305 129.39L322.305 152L316.005 152L316.005 130.3C316.005 126.473 315.048 123.557 313.135 121.55C311.222 119.497 308.608 118.47 305.295 118.47C301.935 118.47 299.252 119.52 297.245 121.62C295.285 123.72 294.305 126.777 294.305 130.79L294.305 152L287.935 152L287.935 113.64L294.305 113.64L294.305 119.1C295.565 117.14 297.268 115.623 299.415 114.55C301.608 113.477 304.012 112.94 306.625 112.94Z" fill="url(#LinearGradient)" fill-rule="evenodd" opacity="1" stroke="none"/>
<path d="M351.4 112.94C356.067 112.94 359.847 114.363 362.74 117.21C365.634 120.01 367.08 124.07 367.08 129.39L367.08 152L360.78 152L360.78 130.3C360.78 126.473 359.824 123.557 357.91 121.55C355.997 119.497 353.384 118.47 350.07 118.47C346.71 118.47 344.027 119.52 342.02 121.62C340.06 123.72 339.08 126.777 339.08 130.79L339.08 152L332.71 152L332.71 113.64L339.08 113.64L339.08 119.1C340.34 117.14 342.044 115.623 344.19 114.55C346.384 113.477 348.787 112.94 351.4 112.94ZM412.486 131.35C412.486 132.563 412.416 133.847 412.276 135.2L381.616 135.2C381.849 138.98 383.132 141.943 385.466 144.09C387.846 146.19 390.716 147.24 394.076 147.24C396.829 147.24 399.116 146.61 400.936 145.35C402.802 144.043 404.109 142.317 404.856 140.17L411.716 140.17C410.689 143.857 408.636 146.867 405.556 149.2C402.476 151.487 398.649 152.63 394.076 152.63C390.436 152.63 387.169 151.813 384.276 150.18C381.429 148.547 379.189 146.237 377.556 143.25C375.922 140.217 375.106 136.717 375.106 132.75C375.106 128.783 375.899 125.307 377.486 122.32C379.072 119.333 381.289 117.047 384.136 115.46C387.029 113.827 390.342 113.01 394.076 113.01C397.716 113.01 400.936 113.803 403.736 115.39C406.536 116.977 408.682 119.17 410.176 121.97C411.716 124.723 412.486 127.85 412.486 131.35ZM405.906 130.02C405.906 127.593 405.369 125.517 404.296 123.79C403.222 122.017 401.752 120.687 399.886 119.8C398.066 118.867 396.036 118.4 393.796 118.4C390.576 118.4 387.822 119.427 385.536 121.48C383.296 123.533 382.012 126.38 381.686 130.02L405.906 130.02ZM418.514 132.75C418.514 128.783 419.307 125.33 420.894 122.39C422.481 119.403 424.674 117.093 427.474 115.46C430.321 113.827 433.564 113.01 437.204 113.01C441.917 113.01 445.791 114.153 448.824 116.44C451.904 118.727 453.934 121.9 454.914 125.96L448.054 125.96C447.401 123.627 446.117 121.783 444.204 120.43C442.337 119.077 440.004 118.4 437.204 118.4C433.564 118.4 430.624 119.66 428.384 122.18C426.144 124.653 425.024 128.177 425.024 132.75C425.024 137.37 426.144 140.94 428.384 143.46C430.624 145.98 433.564 147.24 437.204 147.24C440.004 147.24 442.337 146.587 444.204 145.28C446.071 143.973 447.354 142.107 448.054 139.68L454.914 139.68C453.887 143.6 451.834 146.75 448.754 149.13C445.674 151.463 441.824 152.63 437.204 152.63C433.564 152.63 430.321 151.813 427.474 150.18C424.674 148.547 422.481 146.237 420.894 143.25C419.307 140.263 418.514 136.763 418.514 132.75ZM471.183 118.89L471.183 141.5C471.183 143.367 471.58 144.697 472.373 145.49C473.167 146.237 474.543 146.61 476.503 146.61L481.193 146.61L481.193 152L475.453 152C471.907 152 469.247 151.183 467.473 149.55C465.7 147.917 464.813 145.233 464.813 141.5L464.813 118.89L459.843 118.89L459.843 113.64L464.813 113.64L464.813 103.98L471.183 103.98L471.183 113.64L481.193 113.64L481.193 118.89L471.183 118.89Z" fill="url(#LinearGradient_2)" fill-rule="evenodd" opacity="1" stroke="none"/>
<path d="M1.95029 79.3944L1.95029 14.2019C1.95029 12.5905 3.75848 11.6407 5.08528 12.5552L61.8527 62.9952C62.3943 63.3684 50.9787 57.8896 50.9787 58.5474L52.9503 112.894L1.95029 79.3944Z" fill="#f9bd03" fill-rule="evenodd" opacity="1" stroke="none"/>
<path d="M1.87245 168.459L1.87245 78.4593L52.8724 112.862L52.8724 168.459C52.8724 169.564 51.977 170.459 50.8724 170.459L3.87245 170.459C2.76788 170.459 1.87245 169.564 1.87245 168.459Z" fill="#223bff" fill-rule="evenodd" opacity="1" stroke="none"/>
<path d="M118.505 123.704C118.505 114.867 125.669 107.704 134.505 107.704C143.342 107.704 150.505 114.867 150.505 123.704C150.505 132.54 143.342 139.704 134.505 139.704C125.669 139.704 118.505 132.54 118.505 123.704Z" fill="#04c9a6" fill-rule="evenodd" opacity="1" stroke="none"/>
<path d="M171.123 11.536C173.434 9.83252 176.7 11.4826 176.7 14.3534L176.58 167.376C176.58 167.879 176.633 168.527 176.534 169.073C176.45 169.539 176.239 169.92 175.96 170.192C175.308 170.827 174.148 170.744 173.148 170.744L127.864 170.8C127.182 170.8 126.535 170.53 126.151 170.109C125.721 169.638 125.594 169.009 125.594 169.009C125.594 169.009 125.584 168.165 125.584 167.677L125.549 141.738C128.951 144.111 131.297 144.352 135.759 144.352C147.357 144.352 156.2 134.992 156.2 123.394C156.2 111.796 146.798 102.394 135.2 102.394C130.738 102.394 128.986 103.051 125.584 105.424L125.601 92.9188C125.601 92.7728 125.638 92.2608 125.527 92.1658L97.7362 69.649C96.0233 68.1853 95.7016 68.5251 97.5151 67.1881L171.123 11.536Z" fill="#04c9a6" fill-rule="evenodd" opacity="1" stroke="none"/>
<path d="M73.479 81.1257C71.5986 79.6103 71.3028 76.8575 72.8181 74.9772C74.3335 73.0968 77.0863 72.801 78.9666 74.3164L136.114 120.372C137.995 121.887 138.29 124.64 136.775 126.52C135.26 128.401 132.507 128.696 130.627 127.181L73.479 81.1257Z" fill="#ffffff" fill-rule="evenodd" opacity="1" stroke="none"/>
<path d="M59.3832 76.1149C59.3832 67.2783 66.5466 60.1149 75.3832 60.1149C84.2197 60.1149 91.3832 67.2783 91.3832 76.1149C91.3832 84.9515 84.2197 92.1149 75.3832 92.1149C66.5466 92.1149 59.3832 84.9515 59.3832 76.1149Z" fill="#223bff" fill-rule="evenodd" opacity="1" stroke="none"/>
<path d="M70.2003 76.3944C70.2003 73.633 72.4389 71.3944 75.2003 71.3944C77.9617 71.3944 80.2003 73.633 80.2003 76.3944C80.2003 79.1558 77.9617 81.3944 75.2003 81.3944C72.4389 81.3944 70.2003 79.1558 70.2003 76.3944Z" fill="#ffffff" fill-rule="evenodd" opacity="1" stroke="none"/>
</g>
</svg>
